<svg xmlns="http://www.w3.org/2000/svg" xmlns:xlink="http://www.w3.org/1999/xlink" xmlns:lucid="lucid" width="1856" height="1040"><g transform="translate(0 -40)" lucid:page-tab-id="0_0"><path d="M160 122c0-16.57 13.43-30 30-30h1460c16.57 0 30 13.43 30 30v908c0 16.57-13.43 30-30 30H190c-16.57 0-30-13.43-30-30z" stroke="#474747" fill-opacity="0"/><path d="M268 94.4v3.54c0 6.42-7.1 13.05-15.76 13.05h-46.48c-8.66 0-15.75-6.64-15.75-13.06V94.4z" fill="#9d5125"/><path d="M220.03 60c8.03 0 14.82 4.4 18.17 11.67 4.6-3.14 10.92-1.98 14.04 2.65 1.17 1.64 1.7 3.32 1.8 5.3 7.87.68 13.95 8.25 13.95 14.27v1.3c0 6.45-7.1 13-15.76 13h-46.5c-8.64 0-15.74-6.55-15.74-13v-1.3c0-5.02 4.2-11.87 10.06-13.56v-.57c.08-10.95 8.97-19.82 19.97-19.77z" fill="#f58535"/><path d="M209.54 83.13l-5.2 18.2h3.04l1.17-4.43h5.38l1.1 4.43h3.05l-4.8-18.2zm-.47 11.4l2.22-8.98 2.1 8.97zM231.2 97.34h-.03l-2.47-14.2h-3.1l-2.4 14.13h-.06l-2.4-14.14h-2.95l3.53 18.2h3.38l2.35-13.7h.06l2.36 13.7h3.4l3.64-18.2h-2.9l-2.4 14.2zM245.9 91.4l-1.98-.72c-1.93-.7-2.74-1.53-2.74-3.1-.17-1.26.74-2.43 2-2.6.16-.02.3-.02.45-.02 1.26-.17 2.4.72 2.58 1.96.04.25.03.44 0 .68v.38h2.93v-.4c0-1.9-.5-4.8-5.18-4.8-3.44 0-5.7 1.84-5.7 5.16 0 2.6 1.1 3.97 3.82 5l2 .68c1.6.23 2.73 1.6 2.64 3.2.04 1.45-1.08 2.64-2.5 2.68h-.28c-2 0-3-1.12-3-3.33v-.47h-2.9v.44c0 2.54 1.02 5.53 5.52 5.53 3.7 0 6.07-1.6 6.07-5.48.04-2.5-1.1-3.9-3.7-4.8z" fill="#fff"/><use xlink:href="#a" transform="matrix(1,0,0,1,160,1030) translate(705.5246913580247 11.11111111111111)"/><use xlink:href="#b" transform="matrix(1,0,0,1,160,1030) translate(761.4506172839506 11.11111111111111)"/><path d="M322.86 190c0-16.57 13.43-30 30-30h1224.76c16.57 0 30 13.43 30 30v340c0 16.57-13.43 30-30 30H352.86c-16.57 0-30-13.43-30-30z" fill-opacity="0"/><path d="M337.9 164.1l3.17-1.7 4.7-1.56 4.93-.76 2.16-.08h15.12m15.12 0h30.24m15.12 0h30.24m15.12 0h30.24m15.12 0h30.24m15.12 0h30.25m15.1 0h30.25m15.12 0h30.24m15.13 0h30.24m15.12 0h30.23m15.12 0h30.24m15.1 0h30.25m15.13 0h30.24m15.12 0h30.24m15.12 0h30.24m15.12 0h30.24m15.12 0h30.24m15.12 0h30.24m15.12 0h30.25m15.1 0h30.25m15.12 0h30.24m15.13 0h30.24m15.12 0h30.23m15.12 0h30.24m15.1 0h30.25m15.13 0h30.24m15.12 0h30.24m15.12 0h15.12l5 .42 4.82 1.22 4.54 2 .6.42m10.95 10.98l1.7 3.17 1.55 4.72.76 4.93.08 2.15v14.17m0 14.16v28.34m0 14.16v28.34m0 14.16v28.34m0 14.16v28.34m0 14.16v28.34m0 14.16v28.34m0 14.16v28.34m0 14.16V530l-.42 5-1.23 4.82-2 4.54-.4.6m-11 10.95l-3.16 1.7-4.7 1.56-4.93.76-2.15.08h-15.12m-15.12 0h-30.24m-15.12 0h-30.24m-15.13 0h-30.24m-15.1 0h-30.25m-15.12 0h-30.24m-15.13 0h-30.24m-15.12 0h-30.23m-15.12 0h-30.24m-15.1 0h-30.26m-15.12 0h-30.24m-15.12 0h-30.24m-15.12 0h-30.24m-15.12 0H972.8m-15.12 0h-30.24m-15.12 0h-30.24m-15.13 0H836.7m-15.1 0h-30.25m-15.12 0H746m-15.13 0h-30.24m-15.12 0h-30.23m-15.12 0H609.9m-15.1 0h-30.26m-15.12 0h-30.24m-15.12 0h-30.24m-15.12 0h-30.24m-15.12 0H383.1m-15.12 0h-15.12l-5.02-.42-4.8-1.22-4.55-2-.62-.42m-10.94-10.98l-1.68-3.17-1.56-4.72-.77-4.93-.07-2.15v-14.17m0-14.16v-28.34m0-14.16v-28.34m0-14.16v-28.34m0-14.16v-28.34m0-14.16v-28.34m0-14.16v-28.34m0-14.16v-28.34m0-14.16V190l.4-5 1.24-4.82 2-4.54.42-.6" stroke="#f7981f" stroke-width="3" fill="none"/><use xlink:href="#c" transform="matrix(1,0,0,1,322.8571428571429,530) translate(562.0370370370371 11.11111111111111)"/><use xlink:href="#d" transform="matrix(1,0,0,1,322.8571428571429,530) translate(672.4074074074074 11.11111111111111)"/><path d="M322.86 630c0-16.57 13.43-30 30-30h1224.76c16.57 0 30 13.43 30 30v340c0 16.57-13.43 30-30 30H352.86c-16.57 0-30-13.43-30-30z" fill-opacity="0"/><path d="M337.9 604.1l3.17-1.7 4.7-1.56 4.93-.76 2.16-.08h15.12m15.12 0h30.24m15.12 0h30.24m15.12 0h30.24m15.12 0h30.24m15.12 0h30.25m15.1 0h30.25m15.12 0h30.24m15.13 0h30.24m15.12 0h30.23m15.12 0h30.24m15.1 0h30.25m15.13 0h30.24m15.12 0h30.24m15.12 0h30.24m15.12 0h30.24m15.12 0h30.24m15.12 0h30.24m15.12 0h30.25m15.1 0h30.25m15.12 0h30.24m15.13 0h30.24m15.12 0h30.23m15.12 0h30.24m15.1 0h30.25m15.13 0h30.24m15.12 0h30.24m15.12 0h15.12l5 .42 4.82 1.22 4.54 2 .6.42m10.95 10.98l1.7 3.17 1.55 4.72.76 4.93.08 2.15v14.17m0 14.16v28.34m0 14.16v28.34m0 14.16v28.34m0 14.16v28.34m0 14.16v28.34m0 14.16v28.34m0 14.16v28.34m0 14.16V970l-.42 5-1.23 4.82-2 4.54-.4.6m-11 10.95l-3.16 1.7-4.7 1.56-4.93.76-2.15.08h-15.12m-15.12 0h-30.24m-15.12 0h-30.24m-15.13 0h-30.24m-15.1 0h-30.25m-15.12 0h-30.24m-15.13 0h-30.24m-15.12 0h-30.23m-15.12 0h-30.24m-15.1 0h-30.26m-15.12 0h-30.24m-15.12 0h-30.24m-15.12 0h-30.24m-15.12 0H972.8m-15.12 0h-30.24m-15.12 0h-30.24m-15.13 0H836.7m-15.1 0h-30.25m-15.12 0H746m-15.13 0h-30.24m-15.12 0h-30.23m-15.12 0H609.9m-15.1 0h-30.26m-15.12 0h-30.24m-15.12 0h-30.24m-15.12 0h-30.24m-15.12 0H383.1m-15.12 0h-15.12l-5.02-.42-4.8-1.22-4.55-2-.62-.42m-10.94-10.98l-1.68-3.17-1.56-4.72-.77-4.93-.07-2.15v-14.17m0-14.16v-28.34m0-14.16v-28.34m0-14.16v-28.34m0-14.16v-28.34m0-14.16v-28.34m0-14.16v-28.34m0-14.16v-28.34m0-14.16V630l.4-5 1.24-4.82 2-4.54.42-.6" stroke="#f7981f" stroke-width="3" fill="none"/><use xlink:href="#c" transform="matrix(1,0,0,1,322.8571428571429,970) translate(562.0370370370371 11.11111111111111)"/><use xlink:href="#d" transform="matrix(1,0,0,1,322.8571428571429,970) translate(672.4074074074074 11.11111111111111)"/><path d="M304.76 162c0-16.57 13.43-30 30-30H1613.8c16.58 0 30 13.43 30 30v848c0 16.57-13.42 30-30 30H334.77c-16.57 0-30-13.43-30-30z" stroke="#474747" fill-opacity="0"/><path d="M412.75 134.4v3.54c0 6.42-7.1 13.05-15.75 13.05h-46.48c-8.65 0-15.75-6.64-15.75-13.06v-3.54z" fill="#9d5125"/><path d="M364.8 100c8.02 0 14.8 4.4 18.16 11.67 4.6-3.14 10.92-1.98 14.04 2.65 1.17 1.64 1.72 3.32 1.8 5.3 7.87.68 13.95 8.25 13.95 14.27v1.3c0 6.45-7.1 13-15.75 13h-46.48c-8.66 0-15.76-6.55-15.76-13v-1.3c0-5.02 4.2-11.87 10.06-13.56v-.57c.08-10.95 8.97-19.82 19.97-19.77z" fill="#f58535"/><path d="M353.66 123.13h3.1l3.08 14.58 3.33-14.54h3.08l-4.6 18.2h-3.7zM368.13 123.13h5.77c3.5 0 5.04 2.2 5.04 5.3 0 3.1-1.9 5.4-5.33 5.4h-2.56v7.53h-2.9zm2.9 8.5h2.08c1.57 0 2.92-.83 2.92-3.14 0-1.98-.8-3.17-3.12-3.17h-1.86zM392.58 134.83v.38c0 3.32-1.33 6.52-5.62 6.52-4.6 0-6.04-2.97-6.04-9.47s1.44-9.46 6.05-9.46c5.2 0 5.54 3.8 5.54 5.7v.37h-2.9v-.3c0-1.7-.5-3.64-2.6-3.57-2.08.08-3.1 1.35-3.1 7.22 0 5.87.93 7.3 3.14 7.3 2.42 0 2.72-2.7 2.72-4.42v-.3z" fill="#fff"/><use xlink:href="#e" transform="matrix(1,0,0,1,304.7619047619047,1010) translate(574.5061728395062 11.11111111111111)"/><use xlink:href="#f" transform="matrix(1,0,0,1,304.7619047619047,1010) translate(639.7530864197531 11.11111111111111)"/><use xlink:href="#b" transform="matrix(1,0,0,1,304.7619047619047,1010) translate(712.4691358024692 11.11111111111111)"/><path d="M400 242c0-16.57 13.43-30 30-30h500c16.57 0 30 13.43 30 30v248c0 16.57-13.43 30-30 30H430c-16.57 0-30-13.43-30-30z" stroke="#474747" fill-opacity="0"/><path d="M461.97 200.24v-5.9c0-7.25-5.88-13.13-13.12-13.13-7.24 0-13.12 5.9-13.12 13.14v5.9h6.64v-5.9c0-3.58 2.9-6.5 6.48-6.5 3.57 0 6.48 2.92 6.48 6.5v5.9h6.64z" fill="#876a22"/><path d="M461.98 200.26h5.42v20.83H430v-20.84h5.72v-7.1c0-7.28 5.87-13.16 13.13-13.16 7.26 0 13.13 5.88 13.13 13.15v7.1zm-6.66 0v-7.1c0-3.6-2.88-6.5-6.47-6.5-3.6 0-6.47 2.9-6.47 6.5v7.1h12.94z" fill="#daa835"/><path d="M430 221.1h37.4v.9H430z" fill="#876a22"/><use xlink:href="#g" transform="matrix(1,0,0,1,400,490) translate(204.13580246913583 11.11111111111111)"/><use xlink:href="#h" transform="matrix(1,0,0,1,400,490) translate(270.67901234567904 11.11111111111111)"/><use xlink:href="#i" transform="matrix(1,0,0,1,400,490) translate(343.5185185185185 11.11111111111111)"/><path d="M400 682c0-16.57 13.43-30 30-30h480c16.57 0 30 13.43 30 30v248c0 16.57-13.43 30-30 30H430c-16.57 0-30-13.43-30-30z" stroke="#474747" fill-opacity="0"/><path d="M461.97 640.24v-5.9c0-7.25-5.88-13.13-13.12-13.13-7.24 0-13.12 5.9-13.12 13.14v5.9h6.64v-5.9c0-3.58 2.9-6.5 6.48-6.5 3.57 0 6.48 2.92 6.48 6.5v5.9h6.64z" fill="#876a22"/><path d="M461.98 640.26h5.42v20.83H430v-20.84h5.72v-7.1c0-7.28 5.87-13.16 13.13-13.16 7.26 0 13.13 5.88 13.13 13.15v7.1zm-6.66 0v-7.1c0-3.6-2.88-6.5-6.47-6.5-3.6 0-6.47 2.9-6.47 6.5v7.1h12.94z" fill="#daa835"/><path d="M430 661.1h37.4v.9H430z" fill="#876a22"/><use xlink:href="#g" transform="matrix(1,0,0,1,400,930) translate(194.13580246913583 11.11111111111111)"/><use xlink:href="#h" transform="matrix(1,0,0,1,400,930) translate(260.67901234567904 11.11111111111111)"/><use xlink:href="#j" transform="matrix(1,0,0,1,400,930) translate(333.5185185185185 11.11111111111111)"/><path d="M1040 242c0-16.57 13.43-30 30-30h440c16.57 0 30 13.43 30 30v248c0 16.57-13.43 30-30 30h-440c-16.57 0-30-13.43-30-30z" stroke="#474747" fill-opacity="0"/><path d="M1101.97 200.24v-5.9c0-7.25-5.88-13.13-13.12-13.13-7.24 0-13.12 5.9-13.12 13.14v5.9h6.64v-5.9c0-3.58 2.9-6.5 6.48-6.5 3.57 0 6.48 2.92 6.48 6.5v5.9h6.64z" fill="#876a22"/><path d="M1101.98 200.26h5.42v20.83H1070v-20.84h5.72v-7.1c0-7.28 5.87-13.16 13.13-13.16 7.26 0 13.13 5.88 13.13 13.15v7.1zm-6.66 0v-7.1c0-3.6-2.88-6.5-6.47-6.5-3.6 0-6.47 2.9-6.47 6.5v7.1h12.94z" fill="#daa835"/><path d="M1070 221.1h37.4v.9H1070z" fill="#876a22"/><use xlink:href="#k" transform="matrix(1,0,0,1,1040,490) translate(169.81481481481484 11.11111111111111)"/><use xlink:href="#h" transform="matrix(1,0,0,1,1040,490) translate(245.00000000000003 11.11111111111111)"/><use xlink:href="#i" transform="matrix(1,0,0,1,1040,490) translate(317.8395061728395 11.11111111111111)"/><path d="M1040 682c0-16.57 13.43-30 30-30h440c16.57 0 30 13.43 30 30v248c0 16.57-13.43 30-30 30h-440c-16.57 0-30-13.43-30-30z" stroke="#474747" fill-opacity="0"/><path d="M1101.97 640.24v-5.9c0-7.25-5.88-13.13-13.12-13.13-7.24 0-13.12 5.9-13.12 13.14v5.9h6.64v-5.9c0-3.58 2.9-6.5 6.48-6.5 3.57 0 6.48 2.92 6.48 6.5v5.9h6.64z" fill="#876a22"/><path d="M1101.98 640.26h5.42v20.83H1070v-20.84h5.72v-7.1c0-7.28 5.87-13.16 13.13-13.16 7.26 0 13.13 5.88 13.13 13.15v7.1zm-6.66 0v-7.1c0-3.6-2.88-6.5-6.47-6.5-3.6 0-6.47 2.9-6.47 6.5v7.1h12.94z" fill="#daa835"/><path d="M1070 661.1h37.4v.9H1070z" fill="#876a22"/><use xlink:href="#k" transform="matrix(1,0,0,1,1040,930) translate(169.81481481481484 11.11111111111111)"/><use xlink:href="#h" transform="matrix(1,0,0,1,1040,930) translate(245.00000000000003 11.11111111111111)"/><use xlink:href="#j" transform="matrix(1,0,0,1,1040,930) translate(317.8395061728395 11.11111111111111)"/><path d="M1120 246c0-3.3 2.7-6 6-6h348c3.3 0 6 2.7 6 6v688c0 3.3-2.7 6-6 6h-348c-3.3 0-6-2.7-6-6z" fill="#fff" fill-opacity="0"/><path d="M1136.6 240h9.07m6.05 0h9.08m6.05 0h9.08m6.05 0h9.08m6.05 0h9.1m6.04 0h9.08m6.05 0h9.08m6.05 0h9.08m6.05 0h9.08m6.07 0h9.07m6.06 0h9.07m6.06 0h9.07m6.06 0h9.07m6.06 0h9.07m6.05 0h9.08m6.05 0h9.08m6.05 0h9.08m6.05 0h9.1m6.04 0h9.08m6.05 0h9.08m6.05 0h9.08m6.05 0h9.08m6.06 0h4.54l3.03.82 2.15 2.15.82 3.03v4.5m0 5.97v8.97m0 6v8.96m0 5.98v8.98m0 5.98v8.97m0 6v8.97m0 5.98v8.98m0 5.98v8.98m0 6v8.96m0 5.98v8.98m0 5.98v8.97m0 5.98V415m0 6v8.97m0 5.98v8.97m0 5.98v8.98m0 5.98v8.97m0 6v8.96m0 5.97v8.98m0 5.98v8.97m0 6v8.96m0 5.98v8.98m0 5.98v8.97m0 6v8.96m0 5.98v9m0 5.97v8.97m0 6v8.96m0 5.98v8.98m0 5.98v8.97m0 6v8.97m0 5.98v8.98m0 5.98v8.98m0 6v8.96m0 5.98v8.98m0 5.98v8.97m0 5.98V759m0 6v8.97m0 5.98v8.97m0 5.98v8.98m0 5.98v8.97m0 6v8.96m0 5.97v8.98m0 5.98v8.97m0 6v8.96m0 5.98v8.98m0 5.98v8.97m0 6v8.96m0 5.98v4.5l-.82 3.03-2.15 2.15-3.03.82h-4.54m-6.05 0h-9.07m-6.05 0h-9.08m-6.05 0h-9.08m-6.05 0h-9.08m-6.05 0h-9.1m-6.04 0h-9.08m-6.05 0h-9.08m-6.05 0h-9.08m-6.05 0h-9.08m-6.07 0h-9.07m-6.06 0h-9.07m-6.06 0h-9.07m-6.06 0h-9.07m-6.06 0h-9.07m-6.05 0h-9.08m-6.05 0h-9.08m-6.05 0h-9.08m-6.05 0h-9.1m-6.04 0h-9.08m-6.05 0h-9.08m-6.05 0h-9.08m-6.05 0h-9.08m-6.06 0H1126l-3.03-.82-2.15-2.15-.82-3.03v-4.5m0-5.97v-8.97m0-6v-8.96m0-5.98v-8.98m0-5.98v-8.97m0-6v-8.97m0-5.98v-8.98m0-5.98v-8.98m0-6v-8.96m0-5.98v-8.98m0-5.98v-8.97m0-5.98V765m0-6v-8.97m0-5.98v-8.97m0-5.98v-8.98m0-5.98v-8.97m0-6v-8.96m0-5.97v-8.98m0-5.98v-8.97m0-6v-8.96m0-5.98v-8.98m0-5.98v-8.97m0-6v-8.96m0-5.98v-9m0-5.97v-8.97m0-6v-8.96m0-5.98v-8.98m0-5.98v-8.97m0-6v-8.97m0-5.98v-8.98m0-5.98v-8.98m0-6v-8.96m0-5.98v-8.98m0-5.98v-8.97m0-5.98V421m0-6v-8.97m0-5.98v-8.97m0-5.98v-8.98m0-5.98v-8.97m0-6v-8.96m0-5.97v-8.98m0-5.98v-8.97m0-6v-8.96m0-5.98v-8.98m0-5.98v-8.97m0-6v-8.96m0-5.98V246l.82-3.03 2.15-2.15 3.03-.82h4.54" stroke="#d86613" stroke-width="3" fill="none"/><path d="M1272 240h56v56h-56v-56z" stroke="#fff" stroke-opacity="0" fill="#d86613"/><path d="M1291.68 263.73l-1.14 1.13 2.33 2.34H1280v1.6h12.87l-2.33 2.34 1.14 1.13 4.27-4.27-4.27-4.27zM1320 267.2h-12.87l2.33-2.34-1.14-1.13-4.27 4.27 4.27 4.27 1.14-1.13-2.33-2.34H1320v-1.6zM1299.2 250.63v12.87h1.6v-12.87l2.34 2.33 1.13-1.13-4.27-4.28-4.27 4.28 1.13 1.13 2.34-2.33zM1300.8 285.37V272.5h-1.6v12.87l-2.34-2.33-1.13 1.13 4.27 4.28 4.27-4.28-1.13-1.13-2.34 2.33z" stroke="#fff" stroke-opacity="0" fill="#fff"/><use xlink:href="#l" transform="matrix(1,0,0,1,1120,311) translate(129.55 14.4)"/><use xlink:href="#m" transform="matrix(1,0,0,1,1120,311) translate(171.55 14.4)"/><path d="M1140 710c0-16.57 13.43-30 30-30h220c16.57 0 30 13.43 30 30v180c0 16.57-13.43 30-30 30h-220c-16.57 0-30-13.43-30-30z" stroke="#474747" stroke-width="3" fill-opacity="0"/><path d="M1140 710c0-16.57 13.43-30 30-30h220c16.57 0 30 13.43 30 30v180c0 16.57-13.43 30-30 30h-220c-16.57 0-30-13.43-30-30z" fill="none"/><path d="M1155.04 684.1l3.17-1.7 4.72-1.56 4.93-.76 2.15-.08h14.67m14.66 0h29.34m14.66 0h29.34m14.66 0h29.34m14.66 0h29.34m14.66 0H1390l5 .42 4.82 1.22 4.54 2 .6.42m10.95 10.98l1.7 3.17 1.56 4.72.76 4.93.08 2.15v15m0 15v30m0 15v30m0 15v30m0 15v15l-.42 5-1.22 4.82-2 4.54-.42.6m-10.98 10.95l-3.17 1.7-4.72 1.56-4.93.76-2.15.08h-14.67m-14.66 0h-29.34m-14.66 0h-29.34m-14.66 0h-29.34m-14.66 0h-29.34m-14.66 0H1170l-5-.42-4.82-1.22-4.54-2-.6-.42m-10.95-10.98l-1.7-3.17-1.56-4.72-.76-4.93-.08-2.15v-15m0-15v-30m0-15v-30m0-15v-30m0-15v-15l.42-5 1.22-4.82 2-4.54.42-.6" stroke="red" stroke-width="3" fill="none"/><use xlink:href="#n" transform="matrix(1,0,0,1,1140,890) translate(70.33950617283952 11.11111111111111)"/><use xlink:href="#o" transform="matrix(1,0,0,1,1140,890) translate(152.9320987654321 11.11111111111111)"/><path d="M42.44 571.78H21.7c-.95 0-1.7-.76-1.7-1.7v-2.54c0-9.48 6.23-17.44 15.5-19.67.4-.1.8-.04 1.2.17 2.73 1.46 5.68 1.46 8.4 0 .4-.2.8-.26 1.22-.17 2.43.6 4.43 1.47 6.5 2.85l-1.9 2.83c-1.55-1-3-1.68-4.8-2.15-3.45 1.58-7 1.58-10.43 0-7.4 2.06-12.3 8.5-12.3 16.14v.84h19.04z" stroke="#fff" stroke-opacity="0" fill="#232f3e"/><path d="M40.88 552.46c-6.17 0-11.17-5-11.17-11.14 0-6.16 5-11.15 11.18-11.15 6.16-.07 11.2 4.88 11.26 11 .04 4.27-2.1 7.9-5.86 9.9-1.72.97-3.4 1.4-5.4 1.4zm0-18.9c-4.3 0-7.83 3.45-7.85 7.76 0 2.92 1.48 5.4 4.06 6.8 2.43 1.3 5.12 1.3 7.57 0 2.6-1.4 4.1-3.95 4.06-6.9-.05-4.27-3.57-7.68-7.85-7.64zM98.32 571.78H77.57v-3.4H96.6v-.83c0-7.67-4.9-14.1-12.25-16.17-3.45 1.6-7 1.6-10.46 0-1.82.5-3.3 1.2-4.84 2.28l-1.94-2.8c2.07-1.44 4.08-2.35 6.5-2.97.44-.1.86-.06 1.26.16 2.7 1.46 5.7 1.46 8.42 0 .4-.22.8-.27 1.2-.17 9.25 2.22 15.5 10.16 15.5 19.65v2.53c0 .94-.76 1.68-1.68 1.7z" stroke="#fff" stroke-opacity="0" fill="#232f3e"/><path d="M79.08 552.46c-6.2 0-11.23-5.05-11.23-11.25S72.9 530 79.13 530c6.2 0 11.23 5.05 11.23 11.25 0 4.23-2.14 7.82-5.85 9.84-1.75.94-3.44 1.36-5.42 1.36zm0-18.9c-4.3 0-7.8 3.45-7.83 7.76-.02 2.92 1.46 5.42 4.05 6.8 2.43 1.3 5.13 1.3 7.6 0 2.62-1.4 4.13-3.97 4.08-6.96-.1-4.26-3.62-7.68-7.9-7.6zM87.2 610H32.73c-.92 0-1.67-.75-1.67-1.7v-3.6c-.06-13.1 8.6-24.1 21.32-27.18.46-.13.86-.06 1.27.13 4.04 2.18 8.5 2.18 12.6 0 .34-.2.75-.26 1.2-.13 12.78 3.06 21.45 14.06 21.4 27.18v3.6c0 .95-.76 1.7-1.68 1.7zm-52.72-3.38h50.97v-1.92c0-11.27-7.28-20.74-18.2-23.66-4.8 2.3-9.83 2.3-14.62 0-10.93 2.92-18.15 12.4-18.15 23.66z" stroke="#fff" stroke-opacity="0" fill="#232f3e"/><path d="M60.02 582.64c-2.7 0-5-.58-7.4-1.86-7.4-4.07-10.13-13.34-6.1-20.77 4.1-7.4 13.38-10.12 20.83-6.08 7.42 4.07 10.15 13.34 6.1 20.77-1.47 2.68-3.4 4.6-6.1 6.08-2.36 1.28-4.66 1.86-7.33 1.86zm0-26.76c-4.44-.06-8.28 2.17-10.42 6.1-3.07 5.64-.98 12.74 4.7 15.83 3.67 1.97 7.7 1.97 11.4 0 3.95-2.13 6.22-5.95 6.16-10.42-.1-6.42-5.4-11.6-11.84-11.5z" stroke="#fff" stroke-opacity="0" fill="#232f3e"/><path d="M98.78 571.78H59.06c-.68 0-1.23-.54-1.23-1.23v-2.64c-.04-9.53 6.3-17.56 15.56-19.8.33-.1.63-.06.92.08 2.95 1.6 6.2 1.6 9.2 0 .25-.14.54-.2.88-.1 9.32 2.24 15.64 10.27 15.6 19.83v2.65c0 .7-.55 1.23-1.22 1.23zm-38.46-2.47h37.2v-1.4c0-8.2-5.32-15.1-13.3-17.25-3.5 1.7-7.16 1.7-10.66 0-7.97 2.14-13.24 9.05-13.24 17.26z" stroke="#fff" stroke-opacity="0" stroke-width=".73" fill="#fff" fill-opacity="0"/><path d="M60.94 571.78H21.22c-.67 0-1.22-.54-1.22-1.23v-2.64c-.04-9.53 6.28-17.56 15.56-19.8.34-.1.63-.06.93.08 2.94 1.6 6.2 1.6 9.18 0 .25-.14.55-.2.88-.1 9.32 2.24 15.65 10.27 15.6 19.83v2.65c0 .7-.54 1.23-1.22 1.23zM22.5 569.3h37.18v-1.4c0-8.2-5.3-15.1-13.28-17.25-3.5 1.7-7.17 1.7-10.67 0-7.97 2.14-13.24 9.05-13.24 17.26z" stroke="#fff" stroke-opacity="0" stroke-width=".73" fill="#fff" fill-opacity="0"/><use xlink:href="#p" transform="matrix(1,0,0,1,-10,619) translate(41.04938271604939 17.77777777777778)"/><path d="M255 582.36c0 31.8-25.76 57.63-57.5 57.63S140 614.16 140 582.35c0-31.8 25.76-57.63 57.5-57.63s57.5 25.82 57.5 57.63z" fill="#9d5025"/><path d="M140 577.62h115v4.73H140v-4.73z" fill="#9d5025"/><path d="M255 577.63c0 31.8-25.76 57.63-57.5 57.63S140 609.44 140 577.63c0-31.8 25.76-57.63 57.5-57.63s57.5 25.82 57.5 57.63z" fill="#f58536"/><path d="M154.15 583.36v-1.5c.43-7 4.33-12.8 10.65-15.86.6-12.86 11.52-22.8 24.43-22.12 8.05.38 14.8 4.5 18.88 11.47 6.6-2.77 14.13.28 16.9 6.82.43.95.7 1.72.86 2.67 8.67 1.72 14.9 10.03 14.9 17.02v1.4c0 8.53-8.83 16-18.88 16h-48.94c-9.96.07-18.8-7.42-18.8-15.9z" fill="#fff"/><path d="M209.27 561.48l-3.67 2.54-1.87-4.06c-2.85-6.34-8.7-10.23-15.66-10.27H188c-9.52 0-17.3 7.77-17.3 17.38v3.23l-2.7.8c-4.57 1.83-7.57 5.85-7.94 10.8v1.4c0 4.66 5.7 10.08 12.96 10.08h49c7.33 0 12.95-5.42 12.95-10.1v-1.4c0-4.7-5.25-10.87-11.3-11.35l-3.3-.26-.24-3.28c0-1.4-.44-2.54-1.2-3.68-2.17-3.2-6.5-3.98-9.66-1.8z" fill="#f58536"/><use xlink:href="#q" transform="matrix(1,0,0,1,140,640) translate(19.876543209876544 17.77777777777778)"/><use xlink:href="#r" transform="matrix(1,0,0,1,140,640) translate(16.172839506172842 44.44444444444444)"/><path d="M935 362.36c0 31.8-25.76 57.63-57.5 57.63S820 394.16 820 362.35c0-31.8 25.76-57.63 57.5-57.63s57.5 25.82 57.5 57.63z" fill="#9d5025"/><path d="M935 357.63c0 31.8-25.76 57.63-57.5 57.63S820 389.44 820 357.63c0-31.8 25.76-57.63 57.5-57.63s57.5 25.82 57.5 57.63z" fill="#f58536"/><path d="M893.06 330.86h6.06v53.5h-6.06v-53.5zM910.1 344.4L926 357.38l-15.87 13.48V344.4z" fill="#fff"/><path d="M853.98 354.6l3.5 2.8-3.85 3.26h59.15v-6.06h-58.8zM853.63 333.9h45.5v-6.06h-45.14l3.45 2.82-3.82 3.25zM857.45 384.15l-3.82 3.26h45.5v-6.06h-45.14l3.45 2.8zM841 347.04l12.68 10.35-12.7 10.8v-21.16zM841 320.3l12.68 10.35-12.7 10.8v-21.16zM841 373.8l12.68 10.36-12.7 10.78V373.8z" fill="#fff"/><use xlink:href="#s" transform="matrix(1,0,0,1,820,420) translate(10.49382716049383 17.77777777777778)"/><use xlink:href="#t" transform="matrix(1,0,0,1,820,420) translate(62.28395061728395 17.77777777777778)"/><use xlink:href="#r" transform="matrix(1,0,0,1,820,420) translate(16.172839506172842 44.44444444444444)"/><path d="M915 792.36c0 31.8-25.76 57.63-57.5 57.63S800 824.16 800 792.35c0-31.8 25.76-57.63 57.5-57.63s57.5 25.82 57.5 57.63z" fill="#9d5025"/><path d="M915 787.63c0 31.8-25.76 57.63-57.5 57.63S800 819.44 800 787.63c0-31.8 25.76-57.63 57.5-57.63s57.5 25.82 57.5 57.63z" fill="#f58536"/><path d="M873.06 760.86h6.06v53.5h-6.06v-53.5zM890.1 774.4L906 787.38l-15.87 13.48V774.4z" fill="#fff"/><path d="M833.98 784.6l3.5 2.8-3.85 3.26h59.15v-6.06h-58.8zM833.63 763.9h45.5v-6.06h-45.14l3.45 2.82-3.82 3.25zM837.45 814.15l-3.82 3.26h45.5v-6.06h-45.14l3.45 2.8zM821 777.04l12.68 10.35-12.7 10.8v-21.16zM821 750.3l12.68 10.35-12.7 10.8v-21.16zM821 803.8l12.68 10.36-12.7 10.78V803.8z" fill="#fff"/><use xlink:href="#s" transform="matrix(1,0,0,1,800,850) translate(10.49382716049383 17.77777777777778)"/><use xlink:href="#t" transform="matrix(1,0,0,1,800,850) translate(62.28395061728395 17.77777777777778)"/><use xlink:href="#r" transform="matrix(1,0,0,1,800,850) translate(16.172839506172842 44.44444444444444)"/><path d="M460 310h120v120H460V310z" stroke="#fff" stroke-opacity="0" stroke-width="2" fill="#d86613"/><path d="M556.8 374.8h-8.02v-3.18h8.02v-38.44h-38.44v8.02h-3.18v-8.02c0-1.75 1.44-3.18 3.18-3.18h38.44c1.75 0 3.18 1.43 3.18 3.18v38.44c0 1.75-1.43 3.18-3.18 3.18zM521.6 410h-38.44c-1.74 0-3.18-1.43-3.18-3.18v-38.44c0-1.75 1.44-3.18 3.18-3.18h8.02v3.18h-8.02v38.44h38.44v-8.02h3.18v8.02c0 1.75-1.43 3.18-3.18 3.18z" stroke="#fff" stroke-opacity="0" stroke-width="2" fill="#fff"/><path d="M545.6 355.6v-3.2h-4.8c-.12-1.7-1.5-3.08-3.2-3.2v-4.8h-3.2v4.8h-4.77v-4.8h-3.23v4.8h-4.8v-4.8h-3.2v4.8h-4.8v-4.8h-3.17v4.8h-4.82v-4.8h-3.2v4.8c-1.7.12-3.08 1.5-3.2 3.2h-4.8v3.2h4.8v4.83h-4.8v3.17h4.8v4.8h-4.8v3.2h4.8v4.8h-4.8v3.23h4.8v4.76h-4.8v3.2h4.8c.12 1.7 1.5 3.08 3.2 3.2v4.8h3.2v-4.8h4.83v4.8h3.17v-4.8h4.8v4.8h3.2v-4.8h4.8v4.8h3.23v-4.8h4.76v4.8h3.2v-4.8c1.7-.12 3.08-1.5 3.2-3.2h4.8v-3.2h-4.8v-4.77h4.8v-3.23h-4.8v-4.8h4.8v-3.2h-4.8v-4.8h4.8v-3.17h-4.8v-4.82zm-8 31.7c0 .16-.14.3-.3.3h-34.6c-.16 0-.3-.14-.3-.3v-34.6c0-.16.14-.3.3-.3h34.6c.16 0 .3.14.3.3z" stroke="#fff" stroke-opacity="0" stroke-width="2" fill="#fff"/><use xlink:href="#u" transform="matrix(1,0,0,1,430,439) translate(66.01851851851852 17.77777777777778)"/><path d="M460 730h120v120H460V730z" stroke="#fff" stroke-opacity="0" stroke-width="2" fill="#d86613"/><path d="M556.8 794.8h-8.02v-3.18h8.02v-38.44h-38.44v8.02h-3.18v-8.02c0-1.75 1.44-3.18 3.18-3.18h38.44c1.75 0 3.18 1.43 3.18 3.18v38.44c0 1.75-1.43 3.18-3.18 3.18zM521.6 830h-38.44c-1.74 0-3.18-1.43-3.18-3.18v-38.44c0-1.75 1.44-3.18 3.18-3.18h8.02v3.18h-8.02v38.44h38.44v-8.02h3.18v8.02c0 1.75-1.43 3.18-3.18 3.18z" stroke="#fff" stroke-opacity="0" stroke-width="2" fill="#fff"/><path d="M545.6 775.6v-3.2h-4.8c-.12-1.7-1.5-3.08-3.2-3.2v-4.8h-3.2v4.8h-4.77v-4.8h-3.23v4.8h-4.8v-4.8h-3.2v4.8h-4.8v-4.8h-3.17v4.8h-4.82v-4.8h-3.2v4.8c-1.7.12-3.08 1.5-3.2 3.2h-4.8v3.2h4.8v4.83h-4.8v3.17h4.8v4.8h-4.8v3.2h4.8v4.8h-4.8v3.23h4.8v4.76h-4.8v3.2h4.8c.12 1.7 1.5 3.08 3.2 3.2v4.8h3.2v-4.8h4.83v4.8h3.17v-4.8h4.8v4.8h3.2v-4.8h4.8v4.8h3.23v-4.8h4.76v4.8h3.2v-4.8c1.7-.12 3.08-1.5 3.2-3.2h4.8v-3.2h-4.8v-4.77h4.8v-3.23h-4.8v-4.8h4.8v-3.2h-4.8v-4.8h4.8v-3.17h-4.8v-4.82zm-8 31.7c0 .16-.14.3-.3.3h-34.6c-.16 0-.3-.14-.3-.3v-34.6c0-.16.14-.3.3-.3h34.6c.16 0 .3.14.3.3z" stroke="#fff" stroke-opacity="0" stroke-width="2" fill="#fff"/><use xlink:href="#u" transform="matrix(1,0,0,1,430,859) translate(66.01851851851852 17.77777777777778)"/><path d="M1224.96 713.34l-4.96 2.5v70.32l4.96 2.48 20.1-35.84-20.1-39.46z" fill="#9d5025"/><path d="M1236.52 785.93l-11.56 2.7v-75.3l11.56 2.65v69.95z" fill="#f58536"/><path d="M1230.43 710.58l6.1-3.04 28.97 46.58-28.96 40.32-6.1-3.04v-80.82z" fill="#9d5025"/><path d="M1250.96 790.36l-14.43 4.08v-86.9l14.43 4.08v78.74z" fill="#f58536"/><path d="M1243.32 704.13l7.66-3.85 42.72 58.92-42.72 42.5-7.66-3.85v-93.72z" fill="#9d5025"/><path d="M1269.48 794.9l-18.5 6.8V700.28l18.5 6.8v87.82z" fill="#f58536"/><path d="M1259.6 695.92l9.88-4.92 46.23 63.36L1269.5 811l-9.87-4.92V695.92z" fill="#9d5025"/><path d="M1319 786.16L1269.47 811V691l49.5 24.84v70.32z" fill="#f58536"/><use xlink:href="#v" transform="matrix(1,0,0,1,1220,811) translate(8.79012345679012 17.77777777777778)"/><use xlink:href="#w" transform="matrix(1,0,0,1,1220,811) translate(27.925925925925927 44.44444444444444)"/><path d="M395 582.36c0 31.8-25.76 57.63-57.5 57.63S280 614.16 280 582.35c0-31.8 25.76-57.63 57.5-57.63s57.5 25.82 57.5 57.63z" fill="#9d5025"/><path d="M395 577.63c0 31.8-25.76 57.63-57.5 57.63S280 609.44 280 577.63c0-31.8 25.76-57.63 57.5-57.63s57.5 25.82 57.5 57.63z" fill="#f58536"/><path d="M354.27 531.08V552H320.7v-20.92h33.57zM380.22 591.64v17.04h-17v-17.04h17zM358.73 591.64v17.04h-17v-17.04h17zM332.56 591.64v17.04h-17v-17.04h17zM311.05 591.64v17.04h-17v-17.04h17z" fill="#fff"/><path d="M301.02 576.9h3.06v16.7h-3.06v-16.7z" fill="#fff"/><path d="M301.02 576.9h24.57v3.05H301v-3.06z" fill="#fff"/><path d="M322.53 576.9h3.06v16.7h-3.07v-16.7zM348.7 576.9h3.06v16.7h-3.06v-16.7z" fill="#fff"/><path d="M348.7 576.9h24.56v3.05H348.7v-3.06z" fill="#fff"/><path d="M370.2 576.9h3.06v16.7h-3.05v-16.7zM311.8 564.95h3.06v13.47h-3.06v-13.47zM335.96 548.92h3.06v16.28h-3.06v-16.28z" fill="#fff"/><path d="M311.8 563.67h50.77v3.06H311.8v-3.06z" fill="#fff"/><path d="M359.5 564.95h3.07v13.47h-3.06v-13.47z" fill="#fff"/><use xlink:href="#x" transform="matrix(1,0,0,1,280,640) translate(3.271604938271601 17.77777777777778)"/><use xlink:href="#y" transform="matrix(1,0,0,1,280,640) translate(32.808641975308646 44.44444444444444)"/><use xlink:href="#z" transform="matrix(1,0,0,1,280,640) translate(13.734567901234563 71.11111111111111)"/><path d="M940 563.65h120v29.6H940v-29.6z" fill="#9d5025"/><path d="M940 560h120v28.8H940V560z" fill="#f58536"/><path d="M940 602.07h120v30.9H940v-30.9z" fill="#9d5025"/><path d="M940 599.72h120v28.8H940v-28.8z" fill="#f58536"/><path d="M940 641.07h120V671H940v-29.93z" fill="#9d5025"/><path d="M940 637.72h120v28.8H940v-28.8z" fill="#f58536"/><path d="M954.74 583h-2.68v-12.74h-3.6v-1.8h.3c1.66 0 3.5-.4 4.03-2.63v-.35h1.94zM970.2 568c-3.2 4.65-4.85 9.34-5.36 14.97h-2.9c.63-5.57 2.38-10.17 5.68-14.67h-7.52v-2.54h10.1zM982.44 583h-10c0-7.64 7.22-7.46 7.22-12.9 0-1.45-.62-2.65-2.17-2.65-2.06 0-2.36 1.8-2.36 3.6h-2.58c0-3.5 1.34-5.66 5.05-5.66 2.38-.3 4.54 1.38 4.85 3.76v.92c0 5.82-5.56 6.18-6.9 10.48h6.9zm5.87 0h-2.78v-3.27h2.78zm10 0h-2.8v-12.74h-3.6v-1.8h.3c1.66 0 3.62-.4 4.03-2.63v-.35h2.06zm10.3.34c-4.34 0-5.16-3.37-5.16-8.42 0-5.02.93-9.5 5.36-9.5 3.1 0 4.63 1.4 4.63 4.28h-2.68c0-1-.5-2.3-1.85-2.3-2.58 0-2.68 3.5-2.68 6.06.72-1.22 1.96-1.9 3.3-1.8 2.37 0 4.22 1.8 4.22 5.23.1 4.04-1.55 6.45-5.15 6.45zm10.9-.35h-2.77v-3.27h2.78zm8.04.34c-3.3 0-5.15-2.13-5.15-9 0-6.88 1.76-9 5.16-9 3.3 0 5.05 2.14 5.05 9 0 6.85-1.74 9-5.04 9zm10.7-.35h-2.67v-3.27h2.78zm8.05.34c-3.3 0-5.14-2.13-5.14-9 0-6.88 1.85-9 5.15-9 3.4 0 5.16 2.14 5.16 9 0 6.85-1.75 9-5.05 9zM1046.36 605.2c3.3 0 5.16 2.13 5.16 9 0 6.9-1.76 9-5.16 9-3.3 0-5.15-2.2-5.15-9.05 0-6.86 1.87-8.94 5.16-8.94zm-10.7 14.27h2.77v3.34h-2.9zm-12.38-11.3h.2c1.65 0 3.6-.4 4.02-2.62v-.34h2.07v17.6h-2.9V610h-3.5zm-6.5 11.3h2.8v3.34h-2.9zm-7.83-14.26c3 0 4.64 1.38 4.64 4.26h-2.9c0-1-.4-2.28-1.75-2.28-2.57 0-2.68 3.5-2.68 6.05.62-1.2 1.86-1.88 3.3-1.8 2.37 0 4.23 1.8 4.23 5.24 0 4.05-1.65 6.44-5.26 6.44-4.33 0-5.15-3.35-5.15-8.4 0-5.04 1.02-9.5 5.55-9.5zm-16.9 2.98h.2c1.66 0 3.62-.4 4.03-2.63v-.34h2.06v17.6h-2.78V610h-3.6zm-6.5 11.3h2.8v3.33h-2.8zm-8.03-12.3c-2.06 0-2.37 1.8-2.37 3.6h-2.57c0-3.5 1.33-5.64 5.04-5.64 2.38-.3 4.54 1.4 4.75 3.76.1.33.1.6.1.9 0 5.84-5.57 6.2-6.9 10.5h6.9v2.5h-10c0-7.62 7.22-7.44 7.22-12.92 0-1.47-.63-2.7-2.18-2.7zm-17.4-1.63h10.08v2.23c-3.2 4.65-4.84 9.34-5.35 14.97h-2.9c.63-5.56 2.38-10.16 5.68-14.66h-7.52zm-11.56 2.63h.2c1.66 0 3.62-.4 4.03-2.63v-.34h2.05v17.6h-2.78V610h-3.6zM1046.36 643.25c3.3 0 5.16 2.12 5.16 9 0 6.87-1.76 9-5.16 9-3.3 0-5.15-2.25-5.15-9.06 0-6.82 1.87-8.95 5.16-8.95zm-10.7 14.26h2.77v3.3h-2.9zm-8.05-12.28c-2.05 0-2.36 1.8-2.36 3.6h-2.68c0-3.5 1.44-5.64 5.05-5.64 2.38-.3 4.54 1.4 4.85 3.76v.9c0 5.82-5.56 6.2-6.9 10.5h7v2.45h-10c0-7.63 7.12-7.47 7.12-12.94 0-1.43-.52-2.64-2.06-2.64zm-10.8 12.3h2.77v3.27h-2.9zm-7.85-14.27c3 0 4.64 1.37 4.64 4.25h-2.9c0-1-.4-2.28-1.75-2.28-2.57 0-2.68 3.5-2.68 6.05.62-1.22 1.86-1.9 3.3-1.8 2.37 0 4.23 1.8 4.23 5.24 0 4.06-1.65 6.45-5.26 6.45-4.33 0-5.15-3.36-5.15-8.4 0-5.05 1.02-9.5 5.55-9.5zm-16.9 2.97h.2c1.66 0 3.62-.4 4.03-2.63v-.35h2.06v17.54h-2.78V648h-3.6zm-6.5 11.3h2.8v3.27h-2.8zm-8.03-12.3c-2.06 0-2.37 1.8-2.37 3.6h-2.57c0-3.5 1.33-5.64 5.04-5.64 2.38-.3 4.54 1.4 4.75 3.76.1.33.1.6.1.9 0 5.82-5.57 6.2-6.9 10.5h6.9v2.45h-10c0-7.63 7.22-7.47 7.22-12.94 0-1.43-.63-2.64-2.18-2.64zm-17.4-1.63h10.08v2.22c-3.2 4.65-4.84 9.34-5.35 14.97h-2.9c.63-5.57 2.38-10.17 5.68-14.67h-7.52zm-11.66 2.62h.3c1.66 0 3.62-.4 4.03-2.63v-.35h1.95v17.54h-2.68V648h-3.6z" fill="#fff"/><path d="M1027.53 567.7c-1.88 0-2.37 1.8-2.37 6.97s.5 6.96 2.37 6.96c1.88 0 2.36-1.8 2.36-6.96 0-5.17-.5-6.97-2.37-6.97zM1046.38 567.7c-1.88 0-2.36 1.8-2.36 6.97s.48 6.96 2.36 6.96 2.36-1.8 2.36-6.96c0-5.17-.48-6.97-2.36-6.97zM1046.38 621.37c1.88 0 2.36-1.8 2.36-6.96s-.48-6.96-2.36-6.96-2.36 1.8-2.36 6.97.46 6.97 2.36 6.97zM1008.84 621.37c1.68 0 2.27-1.8 2.27-3.76 0-2.42-.7-3.8-2.26-3.8-2 0-2.36 1.8-2.36 3.94 0 2.12.68 3.63 2.36 3.63zM1046.38 659.4c1.88 0 2.36-1.8 2.36-6.95 0-5.17-.48-6.97-2.36-6.97s-2.36 1.8-2.36 6.97c0 5.16.46 6.96 2.36 6.96zM1008.84 659.4c1.68 0 2.27-1.8 2.27-3.75 0-2.43-.7-3.8-2.26-3.8-2 0-2.36 1.8-2.36 3.93 0 2.12.68 3.63 2.36 3.63zM1008.84 581.63c1.68 0 2.27-1.8 2.27-3.76 0-2.43-.7-3.8-2.26-3.8-2 0-2.36 1.8-2.36 3.93 0 2.12.68 3.63 2.36 3.63z" fill="#f58536"/><g><use xlink:href="#A" transform="matrix(1,0,0,1,940,671) translate(7.592592592592595 17.77777777777778)"/><use xlink:href="#B" transform="matrix(1,0,0,1,940,671) translate(64.32098765432099 17.77777777777778)"/></g><path d="M1778 525.42l57.98 8.62v5.1c0 7.53-25.98 13.63-58 13.63-32 0-57.98-6.1-57.98-13.64v-5.53z" fill="#8c3123"/><path d="M1778.02 562.13c24.2 0 44.93-3.54 53.58-8.5l2.88-4.78 1.15-4.4v5.45l-19 81c0 5.08-17.3 9.1-38.6 9.1-21.33 0-38.6-4.02-38.6-9.1l-19.02-81v-5.35l4.38 9.27c8.76 4.87 29.27 8.3 53.24 8.3z" fill="#8c3123"/><path d="M1778 520c32 0 58 6.12 58 13.62 0 7.5-26 13.57-58 13.57s-58-6.02-58-13.58c0-7.56 26-13.62 58-13.62z" fill="#e05243"/><path d="M1778 556.6c29.84 0 54.4-5.2 57.62-12.06l-19.02 81c0 5.05-17.3 9.1-38.6 9.1-21.33 0-38.6-4.05-38.6-9.1l-19.03-81c3.23 6.85 27.78 12.07 57.62 12.07z" fill="#e05243"/><g><use xlink:href="#C" transform="matrix(1,0,0,1,1720,640) translate(25.28395061728395 17.77777777777778)"/></g><path d="M1269.5 812v102c0 3.3 2.68 6 6 6h95.5" stroke="#5e5e5e" stroke-width="2" fill="none"/><path d="M1270.5 812.02h-2v-1.5l.98.48 1.02-.5" fill="#5e5e5e"/><path d="M1386.26 920l-14.26 4.64v-9.28z" stroke="#5e5e5e" stroke-width="2" fill="#5e5e5e"/><defs><path fill="#333" d="M205 0l-28-72H64L36 0H1l101-248h38L239 0h-34zm-38-99l-47-123c-12 45-31 82-46 123h93" id="D"/><path fill="#333" d="M266 0h-40l-56-210L115 0H75L2-248h35L96-30l15-64 43-154h32l59 218 59-218h35" id="E"/><path fill="#333" d="M185-189c-5-48-123-54-124 2 14 75 158 14 163 119 3 78-121 87-175 55-17-10-28-26-33-46l33-7c5 56 141 63 141-1 0-78-155-14-162-118-5-82 145-84 179-34 5 7 8 16 11 25" id="F"/><g id="a"><use transform="matrix(0.06172839506172839,0,0,0.06172839506172839,0,0)" xlink:href="#D"/><use transform="matrix(0.06172839506172839,0,0,0.06172839506172839,14.012345679012345,0)" xlink:href="#E"/><use transform="matrix(0.06172839506172839,0,0,0.06172839506172839,34.938271604938265,0)" xlink:href="#F"/></g><path fill="#333" d="M96-169c-40 0-48 33-48 73s9 75 48 75c24 0 41-14 43-38l32 2c-6 37-31 61-74 61-59 0-76-41-82-99-10-93 101-131 147-64 4 7 5 14 7 22l-32 3c-4-21-16-35-41-35" id="G"/><path fill="#333" d="M24 0v-261h32V0H24" id="H"/><path fill="#333" d="M100-194c62-1 85 37 85 99 1 63-27 99-86 99S16-35 15-95c0-66 28-99 85-99zM99-20c44 1 53-31 53-75 0-43-8-75-51-75s-53 32-53 75 10 74 51 75" id="I"/><path fill="#333" d="M84 4C-5 8 30-112 23-190h32v120c0 31 7 50 39 49 72-2 45-101 50-169h31l1 190h-30c-1-10 1-25-2-33-11 22-28 36-60 37" id="J"/><path fill="#333" d="M85-194c31 0 48 13 60 33l-1-100h32l1 261h-30c-2-10 0-23-3-31C134-8 116 4 85 4 32 4 16-35 15-94c0-66 23-100 70-100zm9 24c-40 0-46 34-46 75 0 40 6 74 45 74 42 0 51-32 51-76 0-42-9-74-50-73" id="K"/><g id="b"><use transform="matrix(0.06172839506172839,0,0,0.06172839506172839,0,0)" xlink:href="#G"/><use transform="matrix(0.06172839506172839,0,0,0.06172839506172839,11.11111111111111,0)" xlink:href="#H"/><use transform="matrix(0.06172839506172839,0,0,0.06172839506172839,15.987654320987653,0)" xlink:href="#I"/><use transform="matrix(0.06172839506172839,0,0,0.06172839506172839,28.333333333333332,0)" xlink:href="#J"/><use transform="matrix(0.06172839506172839,0,0,0.06172839506172839,40.67901234567901,0)" xlink:href="#K"/></g><path fill="#333" d="M108 0H70L1-190h34L89-25l56-165h34" id="L"/><path fill="#333" d="M141-36C126-15 110 5 73 4 37 3 15-17 15-53c-1-64 63-63 125-63 3-35-9-54-41-54-24 1-41 7-42 31l-33-3c5-37 33-52 76-52 45 0 72 20 72 64v82c-1 20 7 32 28 27v20c-31 9-61-2-59-35zM48-53c0 20 12 33 32 33 41-3 63-29 60-74-43 2-92-5-92 41" id="M"/><path fill="#333" d="M24-231v-30h32v30H24zM24 0v-190h32V0H24" id="N"/><path fill="#333" d="M115-194c53 0 69 39 70 98 0 66-23 100-70 100C84 3 66-7 56-30L54 0H23l1-261h32v101c10-23 28-34 59-34zm-8 174c40 0 45-34 45-75 0-40-5-75-45-74-42 0-51 32-51 76 0 43 10 73 51 73" id="O"/><path fill="#333" d="M59-47c-2 24 18 29 38 22v24C64 9 27 4 27-40v-127H5v-23h24l9-43h21v43h35v23H59v120" id="P"/><path fill="#333" d="M179-190L93 31C79 59 56 82 12 73V49c39 6 53-20 64-50L1-190h34L92-34l54-156h33" id="Q"/><g id="c"><use transform="matrix(0.06172839506172839,0,0,0.06172839506172839,0,0)" xlink:href="#D"/><use transform="matrix(0.06172839506172839,0,0,0.06172839506172839,14.382716049382715,0)" xlink:href="#L"/><use transform="matrix(0.06172839506172839,0,0,0.06172839506172839,25.493827160493826,0)" xlink:href="#M"/><use transform="matrix(0.06172839506172839,0,0,0.06172839506172839,37.839506172839506,0)" xlink:href="#N"/><use transform="matrix(0.06172839506172839,0,0,0.06172839506172839,42.71604938271605,0)" xlink:href="#H"/><use transform="matrix(0.06172839506172839,0,0,0.06172839506172839,47.592592592592595,0)" xlink:href="#M"/><use transform="matrix(0.06172839506172839,0,0,0.06172839506172839,59.93827160493827,0)" xlink:href="#O"/><use transform="matrix(0.06172839506172839,0,0,0.06172839506172839,72.28395061728395,0)" xlink:href="#N"/><use transform="matrix(0.06172839506172839,0,0,0.06172839506172839,77.1604938271605,0)" xlink:href="#H"/><use transform="matrix(0.06172839506172839,0,0,0.06172839506172839,82.03703703703704,0)" xlink:href="#N"/><use transform="matrix(0.06172839506172839,0,0,0.06172839506172839,86.91358024691358,0)" xlink:href="#P"/><use transform="matrix(0.06172839506172839,0,0,0.06172839506172839,93.08641975308642,0)" xlink:href="#Q"/></g><path fill="#333" d="M209 0H11v-25l151-195H24v-28h176v25L50-27h159V0" id="R"/><path fill="#333" d="M117-194c89-4 53 116 60 194h-32v-121c0-31-8-49-39-48C34-167 62-67 57 0H25l-1-190h30c1 10-1 24 2 32 11-22 29-35 61-36" id="S"/><path fill="#333" d="M100-194c63 0 86 42 84 106H49c0 40 14 67 53 68 26 1 43-12 49-29l28 8c-11 28-37 45-77 45C44 4 14-33 15-96c1-61 26-98 85-98zm52 81c6-60-76-77-97-28-3 7-6 17-6 28h103" id="T"/><g id="d"><use transform="matrix(0.06172839506172839,0,0,0.06172839506172839,0,0)" xlink:href="#R"/><use transform="matrix(0.06172839506172839,0,0,0.06172839506172839,13.518518518518517,0)" xlink:href="#I"/><use transform="matrix(0.06172839506172839,0,0,0.06172839506172839,25.864197530864196,0)" xlink:href="#S"/><use transform="matrix(0.06172839506172839,0,0,0.06172839506172839,38.20987654320987,0)" xlink:href="#T"/></g><path fill="#333" d="M114-163C36-179 61-72 57 0H25l-1-190h30c1 12-1 29 2 39 6-27 23-49 58-41v29" id="U"/><g id="e"><use transform="matrix(0.06172839506172839,0,0,0.06172839506172839,0,0)" xlink:href="#L"/><use transform="matrix(0.06172839506172839,0,0,0.06172839506172839,11.11111111111111,0)" xlink:href="#N"/><use transform="matrix(0.06172839506172839,0,0,0.06172839506172839,15.987654320987653,0)" xlink:href="#U"/><use transform="matrix(0.06172839506172839,0,0,0.06172839506172839,23.333333333333332,0)" xlink:href="#P"/><use transform="matrix(0.06172839506172839,0,0,0.06172839506172839,29.50617283950617,0)" xlink:href="#J"/><use transform="matrix(0.06172839506172839,0,0,0.06172839506172839,41.85185185185185,0)" xlink:href="#M"/><use transform="matrix(0.06172839506172839,0,0,0.06172839506172839,54.197530864197525,0)" xlink:href="#H"/></g><path fill="#333" d="M115-194c55 1 70 41 70 98S169 2 115 4C84 4 66-9 55-30l1 105H24l-1-265h31l2 30c10-21 28-34 59-34zm-8 174c40 0 45-34 45-75s-6-73-45-74c-42 0-51 32-51 76 0 43 10 73 51 73" id="V"/><g id="f"><use transform="matrix(0.06172839506172839,0,0,0.06172839506172839,0,0)" xlink:href="#V"/><use transform="matrix(0.06172839506172839,0,0,0.06172839506172839,12.345679012345679,0)" xlink:href="#U"/><use transform="matrix(0.06172839506172839,0,0,0.06172839506172839,19.691358024691358,0)" xlink:href="#N"/><use transform="matrix(0.06172839506172839,0,0,0.06172839506172839,24.5679012345679,0)" xlink:href="#L"/><use transform="matrix(0.06172839506172839,0,0,0.06172839506172839,35.67901234567901,0)" xlink:href="#M"/><use transform="matrix(0.06172839506172839,0,0,0.06172839506172839,48.02469135802469,0)" xlink:href="#P"/><use transform="matrix(0.06172839506172839,0,0,0.06172839506172839,54.19753086419753,0)" xlink:href="#T"/></g><path fill="#333" d="M30-248c87 1 191-15 191 75 0 78-77 80-158 76V0H30v-248zm33 125c57 0 124 11 124-50 0-59-68-47-124-48v98" id="W"/><g id="g"><use transform="matrix(0.06172839506172839,0,0,0.06172839506172839,0,0)" xlink:href="#W"/><use transform="matrix(0.06172839506172839,0,0,0.06172839506172839,14.814814814814813,0)" xlink:href="#J"/><use transform="matrix(0.06172839506172839,0,0,0.06172839506172839,27.160493827160494,0)" xlink:href="#O"/><use transform="matrix(0.06172839506172839,0,0,0.06172839506172839,39.50617283950617,0)" xlink:href="#H"/><use transform="matrix(0.06172839506172839,0,0,0.06172839506172839,44.382716049382715,0)" xlink:href="#N"/><use transform="matrix(0.06172839506172839,0,0,0.06172839506172839,49.25925925925926,0)" xlink:href="#G"/></g><path fill="#333" d="M135-143c-3-34-86-38-87 0 15 53 115 12 119 90S17 21 10-45l28-5c4 36 97 45 98 0-10-56-113-15-118-90-4-57 82-63 122-42 12 7 21 19 24 35" id="X"/><g id="h"><use transform="matrix(0.06172839506172839,0,0,0.06172839506172839,0,0)" xlink:href="#X"/><use transform="matrix(0.06172839506172839,0,0,0.06172839506172839,11.11111111111111,0)" xlink:href="#J"/><use transform="matrix(0.06172839506172839,0,0,0.06172839506172839,23.45679012345679,0)" xlink:href="#O"/><use transform="matrix(0.06172839506172839,0,0,0.06172839506172839,35.80246913580247,0)" xlink:href="#S"/><use transform="matrix(0.06172839506172839,0,0,0.06172839506172839,48.148148148148145,0)" xlink:href="#T"/><use transform="matrix(0.06172839506172839,0,0,0.06172839506172839,60.49382716049382,0)" xlink:href="#P"/></g><path fill="#333" d="M27 0v-27h64v-190l-56 39v-29l58-41h29v221h61V0H27" id="Y"/><use transform="matrix(0.06172839506172839,0,0,0.06172839506172839,0,0)" xlink:href="#Y" id="i"/><path fill="#333" d="M101-251c82-7 93 87 43 132L82-64C71-53 59-42 53-27h129V0H18c2-99 128-94 128-182 0-28-16-43-45-43s-46 15-49 41l-32-3c6-41 34-60 81-64" id="Z"/><use transform="matrix(0.06172839506172839,0,0,0.06172839506172839,0,0)" xlink:href="#Z" id="j"/><g id="k"><use transform="matrix(0.06172839506172839,0,0,0.06172839506172839,0,0)" xlink:href="#W"/><use transform="matrix(0.06172839506172839,0,0,0.06172839506172839,14.814814814814813,0)" xlink:href="#U"/><use transform="matrix(0.06172839506172839,0,0,0.06172839506172839,22.160493827160494,0)" xlink:href="#N"/><use transform="matrix(0.06172839506172839,0,0,0.06172839506172839,27.037037037037038,0)" xlink:href="#L"/><use transform="matrix(0.06172839506172839,0,0,0.06172839506172839,38.14814814814815,0)" xlink:href="#M"/><use transform="matrix(0.06172839506172839,0,0,0.06172839506172839,50.49382716049383,0)" xlink:href="#P"/><use transform="matrix(0.06172839506172839,0,0,0.06172839506172839,56.66666666666667,0)" xlink:href="#T"/></g><path fill="#d86613" d="M205 0l-28-72H64L36 0H1l101-248h38L239 0h-34zm-38-99l-47-123c-12 45-31 82-46 123h93" id="aa"/><path fill="#d86613" d="M84 4C-5 8 30-112 23-190h32v120c0 31 7 50 39 49 72-2 45-101 50-169h31l1 190h-30c-1-10 1-25-2-33-11 22-28 36-60 37" id="ab"/><path fill="#d86613" d="M59-47c-2 24 18 29 38 22v24C64 9 27 4 27-40v-127H5v-23h24l9-43h21v43h35v23H59v120" id="ac"/><path fill="#d86613" d="M100-194c62-1 85 37 85 99 1 63-27 99-86 99S16-35 15-95c0-66 28-99 85-99zM99-20c44 1 53-31 53-75 0-43-8-75-51-75s-53 32-53 75 10 74 51 75" id="ad"/><g id="l"><use transform="matrix(0.05,0,0,0.05,0,0)" xlink:href="#aa"/><use transform="matrix(0.05,0,0,0.05,12,0)" xlink:href="#ab"/><use transform="matrix(0.05,0,0,0.05,22,0)" xlink:href="#ac"/><use transform="matrix(0.05,0,0,0.05,27,0)" xlink:href="#ad"/></g><path fill="#d86613" d="M185-189c-5-48-123-54-124 2 14 75 158 14 163 119 3 78-121 87-175 55-17-10-28-26-33-46l33-7c5 56 141 63 141-1 0-78-155-14-162-118-5-82 145-84 179-34 5 7 8 16 11 25" id="ae"/><path fill="#d86613" d="M96-169c-40 0-48 33-48 73s9 75 48 75c24 0 41-14 43-38l32 2c-6 37-31 61-74 61-59 0-76-41-82-99-10-93 101-131 147-64 4 7 5 14 7 22l-32 3c-4-21-16-35-41-35" id="af"/><path fill="#d86613" d="M141-36C126-15 110 5 73 4 37 3 15-17 15-53c-1-64 63-63 125-63 3-35-9-54-41-54-24 1-41 7-42 31l-33-3c5-37 33-52 76-52 45 0 72 20 72 64v82c-1 20 7 32 28 27v20c-31 9-61-2-59-35zM48-53c0 20 12 33 32 33 41-3 63-29 60-74-43 2-92-5-92 41" id="ag"/><path fill="#d86613" d="M24 0v-261h32V0H24" id="ah"/><path fill="#d86613" d="M24-231v-30h32v30H24zM24 0v-190h32V0H24" id="ai"/><path fill="#d86613" d="M117-194c89-4 53 116 60 194h-32v-121c0-31-8-49-39-48C34-167 62-67 57 0H25l-1-190h30c1 10-1 24 2 32 11-22 29-35 61-36" id="aj"/><path fill="#d86613" d="M177-190C167-65 218 103 67 71c-23-6-38-20-44-43l32-5c15 47 100 32 89-28v-30C133-14 115 1 83 1 29 1 15-40 15-95c0-56 16-97 71-98 29-1 48 16 59 35 1-10 0-23 2-32h30zM94-22c36 0 50-32 50-73 0-42-14-75-50-75-39 0-46 34-46 75s6 73 46 73" id="ak"/><g id="m"><use transform="matrix(0.05,0,0,0.05,0,0)" xlink:href="#ae"/><use transform="matrix(0.05,0,0,0.05,12,0)" xlink:href="#af"/><use transform="matrix(0.05,0,0,0.05,21,0)" xlink:href="#ag"/><use transform="matrix(0.05,0,0,0.05,31,0)" xlink:href="#ah"/><use transform="matrix(0.05,0,0,0.05,34.95,0)" xlink:href="#ai"/><use transform="matrix(0.05,0,0,0.05,38.900000000000006,0)" xlink:href="#aj"/><use transform="matrix(0.05,0,0,0.05,48.900000000000006,0)" xlink:href="#ak"/></g><g id="n"><use transform="matrix(0.06172839506172839,0,0,0.06172839506172839,0,0)" xlink:href="#X"/><use transform="matrix(0.06172839506172839,0,0,0.06172839506172839,11.11111111111111,0)" xlink:href="#T"/><use transform="matrix(0.06172839506172839,0,0,0.06172839506172839,23.45679012345679,0)" xlink:href="#G"/><use transform="matrix(0.06172839506172839,0,0,0.06172839506172839,34.5679012345679,0)" xlink:href="#J"/><use transform="matrix(0.06172839506172839,0,0,0.06172839506172839,46.913580246913575,0)" xlink:href="#U"/><use transform="matrix(0.06172839506172839,0,0,0.06172839506172839,54.25925925925925,0)" xlink:href="#N"/><use transform="matrix(0.06172839506172839,0,0,0.06172839506172839,59.1358024691358,0)" xlink:href="#P"/><use transform="matrix(0.06172839506172839,0,0,0.06172839506172839,65.30864197530863,0)" xlink:href="#Q"/></g><path fill="#333" d="M177-190C167-65 218 103 67 71c-23-6-38-20-44-43l32-5c15 47 100 32 89-28v-30C133-14 115 1 83 1 29 1 15-40 15-95c0-56 16-97 71-98 29-1 48 16 59 35 1-10 0-23 2-32h30zM94-22c36 0 50-32 50-73 0-42-14-75-50-75-39 0-46 34-46 75s6 73 46 73" id="al"/><g id="o"><use transform="matrix(0.06172839506172839,0,0,0.06172839506172839,0,0)" xlink:href="#al"/><use transform="matrix(0.06172839506172839,0,0,0.06172839506172839,12.345679012345679,0)" xlink:href="#U"/><use transform="matrix(0.06172839506172839,0,0,0.06172839506172839,19.691358024691358,0)" xlink:href="#I"/><use transform="matrix(0.06172839506172839,0,0,0.06172839506172839,32.03703703703704,0)" xlink:href="#J"/><use transform="matrix(0.06172839506172839,0,0,0.06172839506172839,44.382716049382715,0)" xlink:href="#V"/></g><path fill="#333" d="M232-93c-1 65-40 97-104 97C67 4 28-28 28-90v-158h33c8 89-33 224 67 224 102 0 64-133 71-224h33v155" id="am"/><g id="p"><use transform="matrix(0.06172839506172839,0,0,0.06172839506172839,0,0)" xlink:href="#am"/><use transform="matrix(0.06172839506172839,0,0,0.06172839506172839,15.987654320987653,0)" xlink:href="#X"/><use transform="matrix(0.06172839506172839,0,0,0.06172839506172839,27.098765432098766,0)" xlink:href="#T"/><use transform="matrix(0.06172839506172839,0,0,0.06172839506172839,39.44444444444444,0)" xlink:href="#U"/><use transform="matrix(0.06172839506172839,0,0,0.06172839506172839,46.79012345679012,0)" xlink:href="#X"/></g><path fill="#333" d="M33 0v-248h34V0H33" id="an"/><g id="q"><use transform="matrix(0.06172839506172839,0,0,0.06172839506172839,0,0)" xlink:href="#an"/><use transform="matrix(0.06172839506172839,0,0,0.06172839506172839,6.172839506172839,0)" xlink:href="#S"/><use transform="matrix(0.06172839506172839,0,0,0.06172839506172839,18.51851851851852,0)" xlink:href="#P"/><use transform="matrix(0.06172839506172839,0,0,0.06172839506172839,24.691358024691358,0)" xlink:href="#T"/><use transform="matrix(0.06172839506172839,0,0,0.06172839506172839,37.03703703703704,0)" xlink:href="#U"/><use transform="matrix(0.06172839506172839,0,0,0.06172839506172839,44.382716049382715,0)" xlink:href="#S"/><use transform="matrix(0.06172839506172839,0,0,0.06172839506172839,56.72839506172839,0)" xlink:href="#T"/><use transform="matrix(0.06172839506172839,0,0,0.06172839506172839,69.07407407407408,0)" xlink:href="#P"/></g><path fill="#333" d="M206 0h-36l-40-164L89 0H53L-1-190h32L70-26l43-164h34l41 164 42-164h31" id="ao"/><g id="r"><use transform="matrix(0.06172839506172839,0,0,0.06172839506172839,0,0)" xlink:href="#al"/><use transform="matrix(0.06172839506172839,0,0,0.06172839506172839,12.345679012345679,0)" xlink:href="#M"/><use transform="matrix(0.06172839506172839,0,0,0.06172839506172839,24.691358024691358,0)" xlink:href="#P"/><use transform="matrix(0.06172839506172839,0,0,0.06172839506172839,30.864197530864196,0)" xlink:href="#T"/><use transform="matrix(0.06172839506172839,0,0,0.06172839506172839,43.20987654320987,0)" xlink:href="#ao"/><use transform="matrix(0.06172839506172839,0,0,0.06172839506172839,59.197530864197525,0)" xlink:href="#M"/><use transform="matrix(0.06172839506172839,0,0,0.06172839506172839,71.5432098765432,0)" xlink:href="#Q"/></g><path fill="#333" d="M137 0h-34L2-248h35l83 218 83-218h36" id="ap"/><path fill="#333" d="M212-179c-10-28-35-45-73-45-59 0-87 40-87 99 0 60 29 101 89 101 43 0 62-24 78-52l27 14C228-24 195 4 139 4 59 4 22-46 18-125c-6-104 99-153 187-111 19 9 31 26 39 46" id="aq"/><g id="s"><use transform="matrix(0.06172839506172839,0,0,0.06172839506172839,0,0)" xlink:href="#ap"/><use transform="matrix(0.06172839506172839,0,0,0.06172839506172839,14.814814814814813,0)" xlink:href="#W"/><use transform="matrix(0.06172839506172839,0,0,0.06172839506172839,29.629629629629626,0)" xlink:href="#aq"/></g><path fill="#333" d="M190 0L58-211 59 0H30v-248h39L202-35l-2-213h31V0h-41" id="ar"/><path fill="#333" d="M127-220V0H93v-220H8v-28h204v28h-85" id="as"/><g id="t"><use transform="matrix(0.06172839506172839,0,0,0.06172839506172839,0,0)" xlink:href="#ar"/><use transform="matrix(0.06172839506172839,0,0,0.06172839506172839,15.987654320987653,0)" xlink:href="#D"/><use transform="matrix(0.06172839506172839,0,0,0.06172839506172839,29.1358024691358,0)" xlink:href="#as"/></g><g id="u"><use transform="matrix(0.06172839506172839,0,0,0.06172839506172839,0,0)" xlink:href="#ao"/><use transform="matrix(0.06172839506172839,0,0,0.06172839506172839,15.987654320987653,0)" xlink:href="#ao"/><use transform="matrix(0.06172839506172839,0,0,0.06172839506172839,31.975308641975307,0)" xlink:href="#ao"/></g><path fill="#333" d="M210-169c-67 3-38 105-44 169h-31v-121c0-29-5-50-35-48C34-165 62-65 56 0H25l-1-190h30c1 10-1 24 2 32 10-44 99-50 107 0 11-21 27-35 58-36 85-2 47 119 55 194h-31v-121c0-29-5-49-35-48" id="at"/><path fill="#333" d="M9 0v-24l116-142H16v-24h144v24L44-24h123V0H9" id="au"/><g id="v"><use transform="matrix(0.06172839506172839,0,0,0.06172839506172839,0,0)" xlink:href="#D"/><use transform="matrix(0.06172839506172839,0,0,0.06172839506172839,14.814814814814813,0)" xlink:href="#at"/><use transform="matrix(0.06172839506172839,0,0,0.06172839506172839,33.2716049382716,0)" xlink:href="#M"/><use transform="matrix(0.06172839506172839,0,0,0.06172839506172839,45.61728395061728,0)" xlink:href="#au"/><use transform="matrix(0.06172839506172839,0,0,0.06172839506172839,56.72839506172839,0)" xlink:href="#I"/><use transform="matrix(0.06172839506172839,0,0,0.06172839506172839,69.07407407407408,0)" xlink:href="#S"/></g><path fill="#333" d="M30 0v-248h187v28H63v79h144v27H63v87h162V0H30" id="av"/><g id="w"><use transform="matrix(0.06172839506172839,0,0,0.06172839506172839,0,0)" xlink:href="#av"/><use transform="matrix(0.06172839506172839,0,0,0.06172839506172839,14.814814814814813,0)" xlink:href="#aq"/><use transform="matrix(0.06172839506172839,0,0,0.06172839506172839,30.80246913580247,0)" xlink:href="#Z"/></g><g id="x"><use transform="matrix(0.06172839506172839,0,0,0.06172839506172839,0,0)" xlink:href="#D"/><use transform="matrix(0.06172839506172839,0,0,0.06172839506172839,14.814814814814813,0)" xlink:href="#V"/><use transform="matrix(0.06172839506172839,0,0,0.06172839506172839,27.160493827160494,0)" xlink:href="#V"/><use transform="matrix(0.06172839506172839,0,0,0.06172839506172839,39.50617283950617,0)" xlink:href="#H"/><use transform="matrix(0.06172839506172839,0,0,0.06172839506172839,44.382716049382715,0)" xlink:href="#N"/><use transform="matrix(0.06172839506172839,0,0,0.06172839506172839,49.25925925925926,0)" xlink:href="#G"/><use transform="matrix(0.06172839506172839,0,0,0.06172839506172839,60.37037037037037,0)" xlink:href="#M"/><use transform="matrix(0.06172839506172839,0,0,0.06172839506172839,72.71604938271605,0)" xlink:href="#P"/><use transform="matrix(0.06172839506172839,0,0,0.06172839506172839,78.88888888888889,0)" xlink:href="#N"/><use transform="matrix(0.06172839506172839,0,0,0.06172839506172839,83.76543209876543,0)" xlink:href="#I"/><use transform="matrix(0.06172839506172839,0,0,0.06172839506172839,96.11111111111111,0)" xlink:href="#S"/></g><path fill="#333" d="M30 0v-248h33v221h125V0H30" id="aw"/><g id="y"><use transform="matrix(0.06172839506172839,0,0,0.06172839506172839,0,0)" xlink:href="#aw"/><use transform="matrix(0.06172839506172839,0,0,0.06172839506172839,12.345679012345679,0)" xlink:href="#I"/><use transform="matrix(0.06172839506172839,0,0,0.06172839506172839,24.691358024691358,0)" xlink:href="#M"/><use transform="matrix(0.06172839506172839,0,0,0.06172839506172839,37.03703703703704,0)" xlink:href="#K"/></g><path fill="#333" d="M160-131c35 5 61 23 61 61C221 17 115-2 30 0v-248c76 3 177-17 177 60 0 33-19 50-47 57zm-97-11c50-1 110 9 110-42 0-47-63-36-110-37v79zm0 115c55-2 124 14 124-45 0-56-70-42-124-44v89" id="ax"/><g id="z"><use transform="matrix(0.06172839506172839,0,0,0.06172839506172839,0,0)" xlink:href="#ax"/><use transform="matrix(0.06172839506172839,0,0,0.06172839506172839,14.814814814814813,0)" xlink:href="#M"/><use transform="matrix(0.06172839506172839,0,0,0.06172839506172839,27.160493827160494,0)" xlink:href="#H"/><use transform="matrix(0.06172839506172839,0,0,0.06172839506172839,32.03703703703704,0)" xlink:href="#M"/><use transform="matrix(0.06172839506172839,0,0,0.06172839506172839,44.382716049382715,0)" xlink:href="#S"/><use transform="matrix(0.06172839506172839,0,0,0.06172839506172839,56.72839506172839,0)" xlink:href="#G"/><use transform="matrix(0.06172839506172839,0,0,0.06172839506172839,67.8395061728395,0)" xlink:href="#T"/><use transform="matrix(0.06172839506172839,0,0,0.06172839506172839,80.18518518518519,0)" xlink:href="#U"/></g><g id="A"><use transform="matrix(0.06172839506172839,0,0,0.06172839506172839,0,0)" xlink:href="#U"/><use transform="matrix(0.06172839506172839,0,0,0.06172839506172839,7.345679012345679,0)" xlink:href="#I"/><use transform="matrix(0.06172839506172839,0,0,0.06172839506172839,19.691358024691358,0)" xlink:href="#J"/><use transform="matrix(0.06172839506172839,0,0,0.06172839506172839,32.03703703703704,0)" xlink:href="#P"/><use transform="matrix(0.06172839506172839,0,0,0.06172839506172839,38.20987654320988,0)" xlink:href="#T"/></g><g id="B"><use transform="matrix(0.06172839506172839,0,0,0.06172839506172839,0,0)" xlink:href="#P"/><use transform="matrix(0.06172839506172839,0,0,0.06172839506172839,6.172839506172839,0)" xlink:href="#M"/><use transform="matrix(0.06172839506172839,0,0,0.06172839506172839,18.51851851851852,0)" xlink:href="#O"/><use transform="matrix(0.06172839506172839,0,0,0.06172839506172839,30.864197530864196,0)" xlink:href="#H"/><use transform="matrix(0.06172839506172839,0,0,0.06172839506172839,35.74074074074074,0)" xlink:href="#T"/></g><path fill="#333" d="M143 0L79-87 56-68V0H24v-261h32v163l83-92h37l-77 82L181 0h-38" id="ay"/><g id="C"><use transform="matrix(0.06172839506172839,0,0,0.06172839506172839,0,0)" xlink:href="#O"/><use transform="matrix(0.06172839506172839,0,0,0.06172839506172839,12.345679012345679,0)" xlink:href="#J"/><use transform="matrix(0.06172839506172839,0,0,0.06172839506172839,24.691358024691358,0)" xlink:href="#G"/><use transform="matrix(0.06172839506172839,0,0,0.06172839506172839,35.80246913580247,0)" xlink:href="#ay"/><use transform="matrix(0.06172839506172839,0,0,0.06172839506172839,46.91358024691358,0)" xlink:href="#T"/><use transform="matrix(0.06172839506172839,0,0,0.06172839506172839,59.25925925925926,0)" xlink:href="#P"/></g></defs></g></svg>